<svg width="512" height="512" viewBox="0 0 512 512" fill="none" xmlns="http://www.w3.org/2000/svg">
<rect width="512" height="512" rx="103" fill="#372AAC"/>
<path d="M347 214.872H270.389C261.833 192.582 251.852 177.031 240.444 168.219C229.296 159.406 214.648 155 196.5 155C172.648 155 154.111 163.424 140.889 180.271C127.667 196.859 120.667 221.741 119.889 254.917H81V294.961H122.222C125.852 316.992 132.593 337.338 142.444 356L184.056 343.559C174.722 327.749 168.37 311.549 165 294.961H248.611C257.167 316.733 267.278 332.284 278.944 341.615C290.611 350.687 304.611 355.222 320.944 355.222C343.241 355.222 360.611 346.928 373.056 330.34C385.5 313.493 391.852 288.352 392.111 254.917H431V214.872H389.389C386.537 196.211 382 178.716 375.778 162.387L334.167 173.273C339.87 186.75 344.148 200.617 347 214.872ZM350.5 254.917C350.241 287.834 340.389 304.292 320.944 304.292C311.87 304.292 304.352 300.923 298.389 294.184C292.685 287.445 287.63 275.263 283.222 257.638C282.963 257.379 282.833 256.99 282.833 256.472C282.833 255.694 282.704 255.176 282.444 254.917H350.5ZM161.5 254.917C162.537 223.037 173.944 207.097 195.722 207.097C205.833 207.097 213.741 210.337 219.444 216.816C225.148 223.296 230.593 235.996 235.778 254.917H161.5Z" fill="white"/>
</svg>
